<svg xmlns="http://www.w3.org/2000/svg" width="29" height="29" viewBox="0 0 29 29" fill="none">
    <path d="M5.35236 5.54646C6.97174 4.00038 9.17061 3.09793 11.3992 2.98569C12.162 2.98569 12.927 2.99027 13.6897 2.9834C13.6508 3.80111 13.6897 4.62111 13.6668 5.43881C13.5592 7.26663 12.8835 9.05321 11.7451 10.4871C10.2655 12.4157 8.00246 13.7098 5.59973 14.0442C4.55068 14.2137 3.4856 14.1061 2.42969 14.1358C2.44801 13.2357 2.39075 12.3332 2.46175 11.4353C2.6679 9.20896 3.71924 7.07651 5.35236 5.54646Z" fill="#E2E8F0"/>
    <path d="M14.3956 2.9834C15.2133 2.99256 16.031 2.97882 16.851 2.98798C18.8918 3.13228 20.9052 3.91563 22.4421 5.2739C24.1371 6.72836 25.2984 8.80813 25.5961 11.0299C25.7267 12.0606 25.6442 13.1028 25.6946 14.1381C24.98 14.1358 24.2676 14.1335 23.553 14.1381C21.7962 14.09 20.0692 13.522 18.5987 12.5646C17.9207 12.079 17.2244 11.5865 16.7159 10.9131C15.6004 9.66706 14.8422 8.10266 14.5559 6.4535C14.3406 5.30825 14.4277 4.1401 14.3956 2.9834Z" fill="#E2E8F0"/>
    <path d="M2.43083 14.7939C3.15692 14.8351 3.8853 14.7595 4.60909 14.8397C7.70813 14.9061 10.7156 16.6469 12.3212 19.297C13.242 20.7812 13.7367 22.5403 13.6726 24.288C13.6703 24.8606 13.6795 25.4309 13.6635 26.0013C12.5136 25.9669 11.3523 26.0608 10.2139 25.8386C7.68522 25.4126 5.36037 23.9077 3.96088 21.7593C2.90038 20.1971 2.37128 18.2892 2.42625 16.4041C2.42625 15.8658 2.42625 15.3299 2.43083 14.7939Z" fill="#E2E8F0"/>
    <path d="M21.8246 15.036C23.0706 14.7588 24.3556 14.8046 25.6222 14.8046L25.6772 14.8596C25.6497 16.0575 25.7436 17.2692 25.5031 18.4534C24.9969 21.1104 23.2378 23.4833 20.8717 24.7866C19.3989 25.6066 17.7085 26.0097 16.025 25.9914C15.4868 25.9937 14.9462 25.9822 14.4079 25.9983C14.4079 25.0065 14.3667 24.0101 14.4789 23.0229C14.7401 20.6339 16.0319 18.4099 17.8895 16.9073C19.0393 16.0003 20.3907 15.3429 21.8246 15.036Z" fill="#E2E8F0"/>
</svg>